# xmcd
#
# Track frame offsets: 
#        150
#        20943
#        34380
#        52250
#        76715
#        103133
#        122148
#        141878
#        163233
#        183266
#        206349
#        229552
#        245292
#        269241
#        292223
#        315763
#        341472
#
# Disc length: 4797 seconds
#
# Revision: 0
# Processed by: cddbd v1.5.2PL0 Copyright (c) Steve Scherf et al.
# Submitted via: ExactAudioCopy v0.99pb5
#
DISCID=fe12bb11
DTITLE=Eric Clapton - Greatest Hits CD2
DYEAR=2011
DGENRE=Blues
TTITLE0=Tears In Heaven
TTITLE1=Motherless Child
TTITLE2=Change The World
TTITLE3=My Father's Eyes
TTITLE4=Piligrim
TTITLE5=Circus
TTITLE6=Get Lost
TTITLE7=Blue Eyes Blue
TTITLE8=Riding With The King (+BB King)
TTITLE9=Believe In Life
TTITLE10=Superman Inside
TTITLE11=If I Had Possession Over Judgement Day
TTITLE12=Sweet Home Chicago
TTITLE13=One Track Mind
TTITLE14=Hard To Thrill
TTITLE15=Autumn Leaves
TTITLE16=Rocking Chair
EXTD=
EXTT0=
EXTT1=
EXTT2=
EXTT3=
EXTT4=
EXTT5=
EXTT6=
EXTT7=
EXTT8=
EXTT9=
EXTT10=
EXTT11=
EXTT12=
EXTT13=
EXTT14=
EXTT15=
EXTT16=
PLAYORDER=
